<svg id="Layer_1" data-name="Layer 1" xmlns="http://www.w3.org/2000/svg" xmlns:xlink="http://www.w3.org/1999/xlink" viewBox="0 0 51.2 54.44"><defs><style>.cls-1,.cls-3,.cls-4{fill:none;}.cls-2{clip-path:url(#clip-path);}.cls-3{stroke:#6d6e70;}.cls-3,.cls-4{stroke-linecap:round;stroke-linejoin:round;stroke-width:2px;}.cls-4{stroke:#58595b;}</style><clipPath id="clip-path" transform="translate(0 0)"><rect class="cls-1" width="51.2" height="54.44"/></clipPath></defs><title>02</title><g class="cls-2"><path class="cls-3" d="M19.91,7.05H5.23A4.23,4.23,0,0,0,1,11.28v4.23" transform="translate(0 0)"/><path class="cls-3" d="M42.13,15.51V13.36a6.31,6.31,0,0,0-6.31-6.31H34.47" transform="translate(0 0)"/><polyline class="cls-3" points="5.45 15.49 30.54 1 38.91 15.51"/><path class="cls-3" d="M1,11.6V47.13a6.31,6.31,0,0,0,6.31,6.31H43.89a6.31,6.31,0,0,0,6.31-6.31V21.81a6.31,6.31,0,0,0-6.31-6.31H5.23A4.23,4.23,0,0,1,1,11.28" transform="translate(0 0)"/><path class="cls-3" d="M50.2,39.66H42.53a3.27,3.27,0,0,1-3.27-3.26V34.48a3.27,3.27,0,0,1,3.27-3.26H50.2Z" transform="translate(0 0)"/><rect class="cls-4" x="8.62" y="28.9" width="20.1" height="11.73" rx="4.53" ry="4.53"/></g></svg>