<svg id="Layer_1" data-name="Layer 1" xmlns="http://www.w3.org/2000/svg" xmlns:xlink="http://www.w3.org/1999/xlink" viewBox="0 0 63.26 43.08"><defs><style>.cls-1,.cls-3{fill:none;}.cls-2{clip-path:url(#clip-path);}.cls-3{stroke:#58595b;stroke-linecap:round;stroke-linejoin:round;stroke-width:2px;}</style><clipPath id="clip-path" transform="translate(0 0)"><rect class="cls-1" width="63.26" height="43.08"/></clipPath></defs><title>03</title><g class="cls-2"><path class="cls-3" d="M12.31,1A11.31,11.31,0,0,0,1,12.31V30.78A11.31,11.31,0,0,0,12.31,42.08h.91V1Z" transform="translate(0 0)"/><path class="cls-3" d="M62.26,30.78V12.31A11.31,11.31,0,0,0,51,1H50.1V42.08H51A11.31,11.31,0,0,0,62.26,30.78Z" transform="translate(0 0)"/><path class="cls-3" d="M45.14,21.92,23.73,9.56a1.31,1.31,0,0,0-2,1.14V35.42a1.31,1.31,0,0,0,2,1.14L45.14,24.2A1.31,1.31,0,0,0,45.14,21.92Z" transform="translate(0 0)"/><circle class="cls-3" cx="56.18" cy="13.26" r="1.78"/><circle class="cls-3" cx="56.18" cy="21.54" r="1.78"/><circle class="cls-3" cx="56.18" cy="29.82" r="1.78"/><circle class="cls-3" cx="7.11" cy="13.26" r="1.78"/><circle class="cls-3" cx="7.11" cy="21.54" r="1.78"/><circle class="cls-3" cx="7.11" cy="29.82" r="1.78"/><rect class="cls-3" x="1" y="1" width="61.26" height="41.08" rx="11.31" ry="11.31"/></g></svg>