<svg id="Layer_1" data-name="Layer 1" xmlns="http://www.w3.org/2000/svg" xmlns:xlink="http://www.w3.org/1999/xlink" viewBox="0 0 63.37 41.7"><defs><style>.cls-1,.cls-2{fill:none;}.cls-2{stroke:#58595b;stroke-linecap:round;stroke-linejoin:round;stroke-width:2px;}.cls-3{clip-path:url(#clip-path);}</style><clipPath id="clip-path" transform="translate(0 0)"><rect class="cls-1" width="63.37" height="41.7"/></clipPath></defs><title>04</title><polygon class="cls-2" points="22.93 22.11 22.93 34.61 41.62 34.61 41.62 22.11 32.31 14.88 22.93 22.11"/><polyline class="cls-2" points="18.35 25.44 32.31 14.88 46.2 25.39"/><polyline class="cls-2" points="29.38 34.55 29.38 27.55 35.17 27.55 35.17 34.55"/><g class="cls-3"><path class="cls-2" d="M54.31,19.66A13.34,13.34,0,0,0,36.42,7.76,14.46,14.46,0,0,0,10.27,19.44,10.68,10.68,0,0,0,11.7,40.7h40a10.68,10.68,0,0,0,2.65-21Z" transform="translate(0 0)"/></g></svg>