<svg id="Layer_1" data-name="Layer 1" xmlns="http://www.w3.org/2000/svg" xmlns:xlink="http://www.w3.org/1999/xlink" viewBox="0 0 74.3 54.38"><defs><style>.cls-1,.cls-3{fill:none;}.cls-2{clip-path:url(#clip-path);}.cls-3{stroke:#58595b;stroke-linecap:round;stroke-linejoin:round;stroke-width:2px;}</style><clipPath id="clip-path" transform="translate(0 0)"><rect class="cls-1" width="74.3" height="54.38"/></clipPath></defs><title>01</title><g class="cls-2"><path class="cls-3" d="M50.88,14.18v-4A9.2,9.2,0,0,0,41.67,1H10.21A9.2,9.2,0,0,0,1,10.2v15a9.21,9.21,0,0,0,9.2,9.2h3.46L19,39.81V34.45h4.1" transform="translate(0 0)"/><path class="cls-3" d="M64.09,14.57H32.63a9.21,9.21,0,0,0-9.2,9.21v15a9.2,9.2,0,0,0,9.2,9.2h23v5.36L61,48h3.12a9.21,9.21,0,0,0,9.21-9.2v-15A9.21,9.21,0,0,0,64.09,14.57Z" transform="translate(0 0)"/><circle class="cls-3" cx="39.38" cy="32.14" r="2.96"/><circle class="cls-3" cx="48.36" cy="32.14" r="2.96"/><circle class="cls-3" cx="57.34" cy="32.14" r="2.96"/><path class="cls-3" d="M64.09,14.57H32.63a9.21,9.21,0,0,0-9.2,9.21v15a9.2,9.2,0,0,0,9.2,9.2h23v5.36L61,48h3.12a9.21,9.21,0,0,0,9.21-9.2v-15A9.21,9.21,0,0,0,64.09,14.57Z" transform="translate(0 0)"/></g></svg>